<svg xmlns="http://www.w3.org/2000/svg"><symbol viewBox="0 0 13.5 13.5" id="icon-add"><path d="m6.75 13.5c-.41 0-.75-.34-.75-.75v-5.25h-5.25c-.41 0-.75-.34-.75-.75s.34-.75.75-.75h5.25v-5.25c0-.41.34-.75.75-.75s.75.34.75.75v5.25h5.25c.41 0 .75.34.75.75s-.34.75-.75.75h-5.25v5.25c0 .41-.34.75-.75.75z"/></symbol><symbol viewBox="0 0 19 18" id="icon-admin-brush"><path d="m5 11c-1.66 0-3 1.34-3 3 0 1.31-1.16 2-2 2 .92 1.22 2.49 2 4 2 2.21 0 4-1.79 4-4 0-1.66-1.34-3-3-3zm13.71-9.37-1.34-1.34c-.39-.39-1.02-.39-1.41 0l-8.96 8.96 2.75 2.75 8.96-8.96c.39-.39.39-1.02 0-1.41z" fill="#3e67f8"/></symbol><symbol viewBox="0 0 11.18 6.58" id="icon-admin-close"><path d="m4.88.29-4.59 4.59c-.39.39-.39 1.02 0 1.41s1.02.39 1.41 0l3.89-3.88 3.88 3.88c.39.39 1.02.39 1.41 0s.39-1.02 0-1.41l-4.59-4.59c-.38-.39-1.02-.39-1.41 0z" fill="#5e637a"/></symbol><symbol viewBox="0 0 18 18" id="icon-admin-edit"><path d="m0 14.46v3.04c0 .28.22.5.5.5h3.04c.13 0 .26-.05.35-.15l10.92-10.91-3.75-3.75-10.91 10.91c-.1.1-.15.22-.15.36zm17.71-10.42c.39-.39.39-1.02 0-1.41l-2.34-2.34c-.39-.39-1.02-.39-1.41 0l-1.83 1.83 3.75 3.75z" fill="#3e67f8"/></symbol><symbol viewBox="0 0 18 18" id="icon-admin-link"><path d="m15 16h-12c-.55 0-1-.45-1-1v-12c0-.55.45-1 1-1h5c.55 0 1-.45 1-1s-.45-1-1-1h-6c-1.11 0-2 .9-2 2v14c0 1.1.9 2 2 2h14c1.1 0 2-.9 2-2v-6c0-.55-.45-1-1-1s-1 .45-1 1v5c0 .55-.45 1-1 1zm-4-15c0 .55.45 1 1 1h2.59l-9.13 9.13c-.39.39-.39 1.02 0 1.41s1.02.39 1.41 0l9.13-9.13v2.59c0 .55.45 1 1 1s1-.45 1-1v-6h-6c-.55 0-1 .45-1 1z" fill="#3e67f8"/></symbol><symbol viewBox="0 0 20 20" id="icon-admin-tooltip"><path d="m10 0c-5.52 0-10 4.48-10 10s4.48 10 10 10 10-4.48 10-10-4.48-10-10-10zm0 15c-.55 0-1-.45-1-1v-4c0-.55.45-1 1-1s1 .45 1 1v4c0 .55-.45 1-1 1zm1-8h-2v-2h2z" fill="#5e637a"/></symbol><symbol viewBox="0 0 16.5 19.5" id="icon-arrow-down"><path d="m8.2 19.5c-.1 0-.2 0-.3-.1-.1 0-.2-.1-.2-.2l-7.5-7.5c-.3-.3-.3-.8 0-1.1s.8-.3 1.1 0l6.2 6.2v-16c0-.5.3-.8.7-.8s.8.3.8.8v16.2l6.2-6.2c.3-.3.8-.3 1.1 0s.3.8 0 1.1l-7.5 7.5c-.1.1-.2.1-.2.2-.2-.1-.2-.1-.4-.1z"/></symbol><symbol viewBox="0 0 16.5 9" id="icon-chevron-down"><path d="m8.2 9c-.1 0-.3-.1-.5-.2l-7.5-7.5c-.3-.3-.3-.8 0-1.1s.8-.3 1.1 0l7 7 7-7c.3-.3.8-.3 1.1 0s.3.8 0 1.1l-7.6 7.5c-.2.1-.4.2-.6.2z"/></symbol><symbol viewBox="0 0 9 16.5" id="icon-chevron-left"><path d="m8.2 16.5c-.2 0-.4-.1-.5-.2l-7.5-7.5c-.3-.3-.3-.8 0-1.1l7.5-7.5c.3-.3.8-.3 1.1 0s.3.8 0 1.1l-7 7 7 7c.3.3.3.8 0 1.1-.2 0-.4.1-.6.1z"/></symbol><symbol viewBox="0 0 9 16.5" id="icon-chevron-right"><path d="m.8 16.5c-.2 0-.4-.1-.5-.2-.3-.3-.3-.8 0-1.1l7-7-7-7c-.3-.3-.3-.8 0-1.1s.8-.3 1.1 0l7.5 7.5c.3.3.3.8 0 1.1l-7.5 7.5c-.3.2-.5.3-.6.3z"/></symbol><symbol viewBox="0 0 13.5 13.5" id="icon-close"><path d="m12.75 13.5c-.19 0-.38-.07-.53-.22l-5.47-5.47-5.47 5.47c-.29.29-.77.29-1.06 0s-.29-.77 0-1.06l5.47-5.47-5.47-5.47c-.29-.29-.29-.77 0-1.06s.77-.29 1.06 0l5.47 5.47 5.47-5.47c.29-.29.77-.29 1.06 0s.29.77 0 1.06l-5.47 5.47 5.47 5.47c.29.29.29.77 0 1.06-.15.15-.34.22-.53.22z"/></symbol><symbol viewBox="0 0 21 16.5" id="icon-envelope"><path d="m0 4.92v8.58c0 1.66 1.34 3 3 3h15c1.66 0 3-1.34 3-3v-8.58l-8.93 5.49c-.96.59-2.18.59-3.14 0z"/><path d="m21 3.16v-.16c0-1.66-1.34-3-3-3h-15c-1.66 0-3 1.34-3 3v.16l9.71 5.98c.48.3 1.09.3 1.57 0l9.71-5.98z"/></symbol><symbol viewBox="0 0 20 20" id="icon-error"><path d="m10 0c-5.52 0-10 4.48-10 10s4.48 10 10 10 10-4.48 10-10-4.48-10-10-10zm1 15h-2v-2h2zm0-4h-2v-6h2z"/></symbol><symbol viewBox="0 0 30.71 30.48" id="icon-facebook"><path d="m1.7 0c-.94 0-1.7.75-1.7 1.68v27.11c0 .93.76 1.68 1.7 1.68h14.71v-11.8h-4v-4.6h4v-3.39c0-3.94 2.42-6.08 5.96-6.08 1.69 0 3.15.12 3.58.18v4.11h-2.45c-1.92 0-2.3.91-2.3 2.24v2.94h4.59l-.6 4.6h-3.99v11.8h7.83c.94 0 1.69-.75 1.69-1.68v-27.11c0-.93-.76-1.68-1.69-1.68-.01 0-27.33 0-27.33 0z"/></symbol><symbol viewBox="0 0 24 24" id="icon-instagram"><path d="m12 2.16c3.2 0 3.58.01 4.85.07 3.25.15 4.77 1.69 4.92 4.92.06 1.27.07 1.65.07 4.85s-.01 3.58-.07 4.85c-.15 3.23-1.66 4.77-4.92 4.92-1.27.06-1.64.07-4.85.07s-3.58-.01-4.85-.07c-3.26-.15-4.77-1.7-4.92-4.92-.06-1.27-.07-1.64-.07-4.85s.01-3.58.07-4.85c.15-3.23 1.66-4.77 4.92-4.92 1.27-.06 1.64-.07 4.85-.07zm0-2.16c-3.26 0-3.67.01-4.95.07-4.35.2-6.78 2.62-6.98 6.98-.06 1.28-.07 1.69-.07 4.95s.01 3.67.07 4.95c.2 4.36 2.62 6.78 6.98 6.98 1.28.06 1.69.07 4.95.07s3.67-.01 4.95-.07c4.35-.2 6.78-2.62 6.98-6.98.06-1.28.07-1.69.07-4.95s-.01-3.67-.07-4.95c-.2-4.35-2.62-6.78-6.98-6.98-1.28-.06-1.69-.07-4.95-.07zm0 5.84c-3.4 0-6.16 2.76-6.16 6.16s2.76 6.16 6.16 6.16 6.16-2.76 6.16-6.16-2.76-6.16-6.16-6.16zm0 10.16c-2.21 0-4-1.79-4-4s1.79-4 4-4 4 1.79 4 4-1.79 4-4 4zm6.41-11.85c-.8 0-1.44.64-1.44 1.44s.65 1.44 1.44 1.44 1.44-.64 1.44-1.44-.64-1.44-1.44-1.44z"/></symbol><symbol viewBox="0 0 12 7.4" id="icon-keyboard-arrow-down"><path d="m6 7.4-6-6 1.4-1.4 4.6 4.6 4.6-4.6 1.4 1.4z"/></symbol><symbol viewBox="0 0 12 7.4" id="icon-keyboard-arrow-up"><path d="m1.4 7.4-1.4-1.4 6-6 6 6-1.4 1.4-4.6-4.6z"/></symbol><symbol viewBox="0 0 24 24" id="icon-linkedin"><path d="m19 0h-14c-2.76 0-5 2.24-5 5v14c0 2.76 2.24 5 5 5h14c2.76 0 5-2.24 5-5v-14c0-2.76-2.24-5-5-5zm-11 19h-3v-11h3zm-1.5-12.27c-.97 0-1.75-.79-1.75-1.76s.78-1.76 1.75-1.76 1.75.79 1.75 1.76-.78 1.76-1.75 1.76zm13.5 12.27h-3v-5.6c0-3.37-4-3.11-4 0v5.6h-3v-11h3v1.77c1.4-2.59 7-2.78 7 2.48v6.76z"/></symbol><symbol viewBox="0 0 16.5 21" id="icon-lock"><path d="m8.25 0c-2.9 0-5.25 2.35-5.25 5.25v3c-1.66 0-3 1.34-3 3v6.75c0 1.66 1.34 3 3 3h10.5c1.66 0 3-1.34 3-3v-6.75c0-1.66-1.34-3-3-3v-3c0-2.9-2.35-5.25-5.25-5.25zm3.75 8.25v-3c0-2.07-1.68-3.75-3.75-3.75s-3.75 1.68-3.75 3.75v3z" fill-rule="evenodd"/></symbol><symbol viewBox="0 0 176.51 33.86" id="icon-logo-amazonpay"><g fill-rule="evenodd"><path d="m69.65 26.49c-6.52 4.81-15.98 7.37-24.12 7.37-11.41 0-21.69-4.22-29.47-11.24-.61-.55-.07-1.31.67-.88 8.39 4.88 18.77 7.82 29.49 7.82 7.23 0 15.18-1.5 22.49-4.6 1.1-.47 2.03.73.95 1.52z"/><path d="m72.37 23.39c-.83-1.07-5.51-.51-7.62-.25-.64.08-.74-.48-.16-.88 3.73-2.62 9.85-1.87 10.56-.99.72.89-.19 7.02-3.69 9.95-.54.45-1.05.21-.81-.38.79-1.97 2.55-6.37 1.71-7.44z"/><path d="m64.9 3.72v-2.54c0-.39.29-.65.65-.64h11.42c.37 0 .66.26.66.64v2.19c0 .37-.31.85-.86 1.6l-5.92 8.45c2.2-.05 4.52.28 6.51 1.4.45.25.57.63.61.99v2.72c0 .38-.41.81-.84.58-3.51-1.84-8.18-2.04-12.07.02-.4.21-.81-.22-.81-.59v-2.59c0-.41 0-1.12.42-1.75l6.85-9.83h-5.97c-.36 0-.66-.26-.66-.64z"/><path d="m23.23 19.64h-3.48c-.33-.02-.59-.27-.62-.59v-17.83c0-.36.3-.64.67-.64h3.24c.34.02.61.27.63.6v2.33h.07c.84-2.25 2.43-3.3 4.57-3.3s3.54 1.05 4.51 3.3c.84-2.25 2.76-3.3 4.8-3.3 1.46 0 3.05.6 4.02 1.95 1.1 1.5.88 3.68.88 5.59v11.26c0 .35-.3.64-.67.64h-3.47c-.35-.02-.62-.3-.62-.64v-9.45c0-.75.06-2.63-.1-3.34-.26-1.2-1.04-1.54-2.04-1.54-.84 0-1.72.56-2.08 1.46s-.32 2.4-.32 3.42v9.45c0 .35-.3.64-.67.64h-3.47c-.35-.02-.62-.3-.62-.64v-9.45c0-1.99.32-4.91-2.14-4.91s-2.4 2.85-2.4 4.91v9.45c0 .35-.3.64-.67.64z"/><path d="m87.49 3.84c-2.56 0-2.72 3.49-2.72 5.67s-.03 6.83 2.69 6.83 2.82-3.75 2.82-6.04c0-1.5-.07-3.3-.52-4.73-.39-1.24-1.17-1.73-2.27-1.73zm-.03-3.64c5.16 0 7.95 4.43 7.95 10.06s-3.08 9.76-7.95 9.76-7.82-4.43-7.82-9.95 2.79-9.87 7.82-9.87z"/><path d="m102.09 19.64h-3.46c-.35-.02-.62-.3-.62-.64v-17.84c.02-.33.31-.58.66-.58h3.22c.3.01.55.22.62.5v2.73h.06c.97-2.44 2.33-3.6 4.74-3.6 1.56 0 3.08.56 4.06 2.1.91 1.43.91 3.83.91 5.55v11.22c-.04.32-.32.56-.67.56h-3.48c-.32-.02-.58-.26-.62-.56v-9.68c0-1.95.23-4.81-2.17-4.81-.84 0-1.62.56-2.01 1.43-.49 1.09-.55 2.18-.55 3.38v9.6c0 .35-.31.64-.68.64z"/><path d="m59.29 19.6c-.23.21-.56.22-.82.08-1.15-.96-1.36-1.4-1.99-2.32-1.91 1.94-3.26 2.53-5.73 2.53-2.92 0-5.2-1.81-5.2-5.42 0-2.82 1.53-4.74 3.71-5.68 1.89-.83 4.52-.98 6.53-1.2v-.45c0-.83.06-1.8-.42-2.52-.42-.64-1.24-.9-1.95-.9-1.33 0-2.5.68-2.79 2.09-.06.31-.29.62-.6.64l-3.37-.36c-.28-.07-.6-.29-.52-.73.76-4.04 4.36-5.3 7.63-5.33h.26c1.67.02 3.81.48 5.11 1.73 1.69 1.58 1.53 3.69 1.53 5.98v5.41c0 1.63.68 2.34 1.31 3.22.22.32.27.69-.01.92-.71.59-1.97 1.69-2.66 2.31h-.01zm-3.5-8.47c0 1.35.03 2.48-.65 3.69-.55.98-1.43 1.58-2.41 1.58-1.33 0-2.11-1.01-2.11-2.52 0-2.96 2.65-3.5 5.17-3.5z"/><path d="m13.74 19.6c-.23.21-.56.22-.82.08-1.15-.96-1.36-1.4-1.99-2.32-1.91 1.94-3.26 2.53-5.73 2.53-2.93 0-5.2-1.81-5.2-5.42 0-2.82 1.53-4.74 3.71-5.68 1.88-.83 4.52-.98 6.53-1.2v-.45c0-.83.07-1.8-.42-2.52-.42-.64-1.24-.9-1.95-.9-1.33 0-2.51.68-2.79 2.09-.06.31-.29.62-.6.64l-3.37-.36c-.29-.07-.6-.29-.52-.73.76-4.04 4.36-5.3 7.63-5.33h.26c1.67.02 3.81.48 5.11 1.73 1.69 1.58 1.53 3.69 1.53 5.98v5.41c0 1.63.68 2.34 1.31 3.22.22.32.27.69-.01.92-.71.59-1.97 1.69-2.66 2.31zm-3.5-8.47c0 1.35.03 2.48-.65 3.69-.55.98-1.43 1.58-2.41 1.58-1.33 0-2.11-1.01-2.11-2.52 0-2.96 2.65-3.5 5.17-3.5z"/><path d="m159.77 26.04v-1.31c0-.37.18-.63.57-.61.73.1 1.75.21 2.48.06.95-.2 1.64-.87 2.04-1.8.57-1.3.95-2.35 1.18-3.04l-7.23-17.91c-.12-.3-.16-.87.45-.87h2.53c.48 0 .68.31.79.61l5.24 14.55 5-14.55c.1-.3.31-.61.79-.61h2.38c.6 0 .57.56.45.87l-7.17 18.47c-.93 2.46-2.16 6.37-4.95 7.05-1.4.36-3.16.23-4.19-.2-.26-.13-.36-.48-.36-.71z"/><path d="m156.4 18.55c0 .33-.27.61-.61.61h-1.78c-.38 0-.65-.28-.7-.61l-.18-1.21c-.82.69-1.82 1.3-2.91 1.73-2.1.81-4.51.95-6.56-.31-1.48-.91-2.27-2.69-2.27-4.52 0-1.42.44-2.82 1.41-3.84 1.29-1.4 3.17-2.08 5.43-2.08 1.37 0 3.32.16 4.75.63v-2.44c0-2.48-1.04-3.56-3.8-3.56-2.11 0-3.72.32-5.96 1.02-.36.01-.57-.26-.57-.59v-1.39c0-.33.29-.66.59-.75 1.6-.7 3.87-1.13 6.28-1.21 3.14 0 6.88.71 6.88 5.54v13.01zm-3.42-3.56v-3.68c-1.2-.33-3.18-.46-3.94-.46-1.21 0-2.53.29-3.23 1.03-.52.55-.75 1.33-.75 2.09 0 .98.34 1.96 1.13 2.45.92.62 2.35.55 3.69.17 1.29-.37 2.5-1.01 3.1-1.59z"/><path d="m130.13 2.99c3.95 0 5.03 3.11 5.03 6.67.02 2.4-.42 4.54-1.66 5.77-.93.92-1.97 1.17-3.53 1.17-1.39 0-3.22-.73-4.59-1.74v-10.18c1.42-1.09 3.24-1.68 4.75-1.68zm-5.36 23.68h-2.39c-.33 0-.61-.27-.61-.61v-24.86c0-.33.27-.61.61-.61h1.83c.38 0 .65.28.7.61l.19 1.3c1.71-1.52 3.91-2.49 6.01-2.49 5.88 0 7.81 4.84 7.81 9.88 0 5.39-2.96 9.72-7.96 9.72-2.11 0-4.07-.78-5.59-2.13v8.59c0 .33-.27.61-.61.61z"/></g></symbol><symbol viewBox="0 0 69.5 24" id="icon-logo-american-express"><path d="m69.1 13.22.4 9.09c-.69.31-3.29 1.69-4.26 1.69h-4.79v-.66c-.55.44-1.55.66-2.47.66h-15.05v-2.47c0-.34-.06-.34-.35-.34h-.26v2.81h-4.96v-2.92c-.83.4-1.75.4-2.58.4h-.54v2.52h-6.05l-1.43-1.66-1.58 1.66h-9.72v-10.78h9.89l1.41 1.66 1.55-1.66h6.65c.78 0 2.04.11 2.58.66v-.66h5.94c.6 0 1.75.11 2.52.66v-.66h8.95v.66c.52-.43 1.43-.66 2.26-.66h4.99v.66c.55-.37 1.32-.66 2.32-.66zm-34.2 6.65c1.58 0 3.18-.43 3.18-2.58s-1.63-2.52-3.07-2.52h-5.88l-2.38 2.52-2.24-2.52h-7.43v7.67h7.31l2.35-2.51 2.27 2.51h3.56v-2.57h2.32zm11.1-.32c-.17-.23-.49-.52-.95-.66.52-.17 1.32-.83 1.32-2.04 0-.89-.31-1.38-.92-1.72-.6-.32-1.32-.37-2.27-.37h-4.22v7.67h1.86v-2.8h1.98c.66 0 1.03.06 1.32.34.32.37.32 1.03.32 1.55v.9h1.84v-1.48c0-.69-.06-1.03-.29-1.41zm7.57-3.18v-1.6h-6.14v7.67h6.14v-1.56h-4.33v-1.55h4.24v-1.55h-4.24v-1.41zm4.67 6.07c1.86 0 2.93-.76 2.93-2.39 0-.77-.23-1.26-.54-1.66-.46-.37-1.12-.6-2.15-.6h-1c-.26 0-.49-.06-.72-.11-.2-.09-.37-.26-.37-.55 0-.26.06-.43.29-.6.14-.11.37-.11.72-.11h3.38v-1.63h-3.67c-1.98 0-2.64 1.2-2.64 2.29 0 2.44 2.15 2.32 3.84 2.38.34 0 .54.06.66.17.12.09.23.32.23.54 0 .2-.12.37-.23.49-.17.11-.37.17-.72.17h-3.56v1.62h3.56zm7.2 0c1.86 0 2.92-.76 2.92-2.39 0-.77-.23-1.26-.54-1.66-.46-.37-1.12-.6-2.15-.6h-1c-.26 0-.49-.06-.72-.11-.2-.09-.37-.26-.37-.55 0-.26.12-.43.29-.6.14-.11.37-.11.72-.11h3.38v-1.63h-3.67c-1.92 0-2.64 1.2-2.64 2.29 0 2.44 2.15 2.32 3.84 2.38.34 0 .54.06.66.17.11.09.23.32.23.54 0 .2-.11.37-.23.49s-.37.17-.72.17h-3.56v1.62h3.56zm-21.48-5.92c.23.11.37.34.37.66 0 .34-.14.6-.37.77-.29.11-.54.11-.89.11l-2.24.06v-1.75h2.24c.34 0 .66 0 .89.14zm-7.86-11.87c-.29.17-.54.17-.92.17h-2.26v-1.69h2.26c.32 0 .69 0 .92.11.23.14.34.37.34.72 0 .32-.11.6-.34.69zm14.68-1.81 1.26 3.04h-2.52zm-20.01 18.95-2.84-3.18 2.84-3.01zm4.24-5.42c.66 0 1.09.26 1.09.92s-.43 1.03-1.09 1.03h-2.44v-1.95s2.44 0 2.44 0zm-29.24-10.49 1.29-3.04 1.26 3.04zm13.13 10.49h4.62l2.04 2.24-2.09 2.26h-4.56v-1.55h4.07v-1.55h-4.07s0-1.41 0-1.4zm.17-7-.55 1.38h-3.24l-.55-1.32v1.32h-6.22l-.66-1.75h-1.58l-.72 1.75h-5.55l2.39-5.65 2.24-5.1h4.79l.66 1.26v-1.26h5.59l1.26 2.72 1.23-2.72h17.83c.83 0 1.55.14 2.09.6v-.6h4.9v.6c.8-.46 1.86-.6 3.07-.6h7.08l.66 1.26v-1.26h5.22l.78 1.26v-1.26h5.1v10.75h-5.16l-1-1.64v1.64h-6.42l-.72-1.75h-1.58l-.72 1.75h-3.35c-1.32 0-2.29-.32-2.95-.66v.66h-7.97v-2.47c0-.34-.06-.4-.29-.4h-.26v2.87h-15.4zm24.29-6.97c-.83.83-.97 1.86-1 3.01 0 1.38.34 2.27.95 2.93.66.66 1.81.86 2.69.86h2.15l.72-1.69h3.84l.72 1.69h3.73v-5.76l3.47 5.76h2.64v-7.68h-1.89v5.33l-3.24-5.33h-2.84v7.25l-3.1-7.25h-2.72l-2.64 6.05h-.83c-.49 0-1-.11-1.26-.37-.34-.4-.49-1-.49-1.84s.14-1.4.49-1.75c.37-.32.77-.43 1.43-.43h1.75v-1.66h-1.75c-1.26 0-2.26.29-2.81.89zm-3.78-.89v7.68h1.86v-7.67s-1.86 0-1.86 0zm-8.46 0v7.68h1.81v-2.78h1.98c.66 0 1.09.06 1.38.31.32.4.26 1.06.26 1.49v.98h1.89v-1.52c0-.66-.06-1-.34-1.38-.17-.23-.49-.49-.89-.66.52-.23 1.32-.83 1.32-2.04 0-.89-.37-1.38-.98-1.75-.6-.34-1.26-.34-2.21-.34h-4.22zm-7.48 0v7.68h6.16v-1.58h-4.3v-1.55h4.24v-1.58h-4.24v-1.38h4.3v-1.61h-6.17zm-7.51 7.68h1.58l2.69-6.02v6.02h1.86v-7.67h-3.01l-2.26 5.22-2.41-5.22h-2.95v7.25l-3.15-7.25h-2.72l-3.3 7.68h1.98l.69-1.69h3.87l.69 1.69h3.76v-6.02l2.7 6.02z"/></symbol><symbol viewBox="0 0 95.4 16" id="icon-logo-discover"><path d="m50.43.06c4.55 0 8.09 3.49 8.09 7.94s-3.57 7.96-8.09 7.96-8.11-3.44-8.11-8.05c-.01-4.34 3.63-7.85 8.11-7.85zm-46.07.28c4.81 0 8.17 3.13 8.17 7.64 0 2.25-1.03 4.42-2.76 5.86-1.46 1.21-3.13 1.76-5.43 1.76h-4.34v-15.26zm3.47 11.46c1.03-.91 1.64-2.38 1.64-3.85s-.61-2.88-1.64-3.8c-.98-.89-2.15-1.23-4.07-1.23h-.8v10.1h.8c1.92 0 3.13-.37 4.07-1.22zm6.07 3.8v-15.25h2.97v15.27h-2.97zm10.22-9.41c3.38 1.24 4.38 2.34 4.38 4.76 0 2.95-2.17 5.01-5.25 5.01-2.26 0-3.9-.9-5.27-2.91l1.91-1.86c.68 1.33 1.83 2.04 3.24 2.04 1.33 0 2.31-.92 2.31-2.15 0-.64-.3-1.19-.89-1.58-.3-.19-.89-.46-2.05-.87-2.78-1.01-3.74-2.09-3.74-4.19 0-2.47 2.05-4.35 4.74-4.35 1.67 0 3.2.57 4.47 1.7l-1.55 2.03c-.78-.87-1.51-1.23-2.4-1.23-1.28 0-2.21.73-2.21 1.69 0 .82.52 1.26 2.31 1.92zm5.32 1.78c0-4.44 3.6-7.99 8.1-7.99 1.28 0 2.35.27 3.65.94v3.5c-1.23-1.21-2.31-1.72-3.72-1.72-2.79 0-4.98 2.31-4.98 5.24 0 3.09 2.12 5.27 5.11 5.27 1.35 0 2.4-.48 3.58-1.67v3.5c-1.35.64-2.44.89-3.72.89-4.52 0-8.03-3.48-8.03-7.97zm35.8 2.61 4.11-10.23h3.22l-6.57 15.65h-1.6l-6.46-15.65h3.24l4.06 10.25zm8.68 5.01v-15.24h8.42v2.59h-5.45v3.39h5.24v2.58h-5.24v4.12h5.45v2.58h-8.42zm20.17-10.76c0 2.34-1.23 3.87-3.47 4.33l4.79 6.43h-3.65l-4.11-6.14h-.39v6.14h-2.97v-15.24h4.4c3.43 0 5.38 1.64 5.38 4.51zm-5.96 2.52c1.9 0 2.9-.83 2.9-2.36s-1-2.27-2.86-2.27h-.91v4.63h.86z"/></symbol><symbol viewBox="0 0 436 173.1" id="icon-logo-googlepay"><path d="m260.5 20.8c-7.5-7.1-17.4-11-27.7-10.8h-42.7v125.3h16.1v-50.7h26.6c11 0 20.2-3.5 27.7-10.7 7.5-6.8 11.8-16.5 11.5-26.6.2-10.1-4.1-19.7-11.5-26.5zm-11.4 41.9c-4.2 4.3-9.9 6.7-15.9 6.5h-27v-43.8h27c6-.2 11.8 2.2 15.9 6.7.2.1.3.3.4.4 8.3 8.5 8.1 22-.4 30.2z"/><path d="m337.3 56.3c-6.9-6.4-16.3-9.5-28.2-9.5-15.3 0-26.8 5.6-34.6 16.8l14.2 8.9c5.2-7.6 12.4-11.4 21.3-11.4 5.7-.1 11.3 2 15.5 5.9 4.2 3.5 6.7 8.7 6.6 14.2v3.7c-6.2-3.5-14.1-5.2-23.6-5.2-11.2 0-20.2 2.6-26.9 7.9-6.7 5.2-10.1 12.3-10.1 21.2-.2 8.1 3.4 15.8 9.5 21 6.4 5.6 14.3 8.4 23.7 8.4 11.1 0 19.9-4.9 26.6-14.7h.7v11.9h15.4v-52.9c.2-11.1-3.2-19.8-10.1-26.2zm-13.1 60c-4.8 4.8-11.3 7.5-18.1 7.5-4.5.1-9-1.4-12.5-4.2-3.4-2.4-5.4-6.3-5.3-10.5 0-4.7 2.2-8.6 6.6-11.8s9.8-4.7 16.4-4.7c9 0 16 2 21 6-.1 6.7-2.7 12.6-8.1 17.7z"/><path d="m418.5 49.6-24.9 61.6h-.3l-25.6-61.6h-17.5l35.4 80.3-20 43.2h16.6l53.8-123.5z"/><path d="m72 59v27.7h38.9c-1.6 9-6.8 16.9-14.4 21.9-6.5 4.4-14.8 6.9-24.5 6.9-18.8 0-34.7-12.7-40.4-29.7-3-8.9-3-18.6 0-27.6 5.7-17 21.6-29.7 40.4-29.7 10.3-.2 20.2 3.7 27.6 10.8l20.5-20.5c-13-12.3-30.2-19-48.1-18.8-27.2 0-52.1 15.4-64.3 39.7-10.2 20.3-10.2 44.3 0 64.6 12.2 24.3 37.1 39.7 64.3 39.7 19.4 0 35.8-6.4 47.7-17.4 13.6-12.5 21.4-31.1 21.4-53 0-4.9-.4-9.8-1.2-14.6z"/></symbol><symbol viewBox="0 0 49.87 13.34" id="icon-logo-klarna"><path d="m13.2 0h-1.66c-.41 0-.45.04-.45.46v12.29c0 .34.06.4.4.4h1.63c.51 0 .56-.05.56-.55v-12.14c0-.39-.07-.46-.47-.46zm-10.86 0c-.51 0-1.01 0-1.52 0-.53.01-.82.31-.82.85v11.87c0 .35.05.4.4.4h1.54c.54 0 .81-.27.81-.81v-11.88c0-.35-.07-.43-.41-.43zm7.38 12.81c-.15-1.46-.68-2.76-1.7-3.84-1.1-1.15-2.46-1.79-3.94-1.94-.48 0-.48 0-.47.35 0 .13.03.26.05.4.26 1.75 1.12 3.15 2.55 4.2.94.69 2 1.05 3.15 1.15.34.03.4 0 .37-.33zm-.36-12.78c-.13.02-.27.01-.4.03-1.5.24-2.78.9-3.79 2.04-.93 1.04-1.45 2.27-1.57 3.66-.03.36-.01.36.37.41.52-.13 1.07-.21 1.57-.4 2.5-.95 3.86-2.79 4.18-5.43.04-.33-.02-.37-.36-.32zm13.4 6.2c-.04-1.46-.87-2.43-2.27-2.78-1.56-.39-3.1-.16-4.63.17-.18.04-.26.17-.25.36v1.03c0 .49.06.51.55.48.99-.06 1.98-.09 2.96-.1.59 0 .95.33 1.05.87.03.17.02.34.02.51 0 .66 0 .67-.65.66-.91 0-1.83.02-2.71.29-.91.27-1.57.82-1.77 1.79-.13.63-.11 1.27.04 1.9.21.88.74 1.47 1.61 1.73.96.28 1.91.24 2.83-.2.26-.13.51-.28.8-.45.01.09.02.14.02.18.02.43.08.48.51.48h1.54c.3 0 .41-.1.4-.39-.01-2.18 0-4.36-.06-6.54zm-2.83 4.91c-.56.22-1.13.33-1.73.23-.37-.06-.65-.29-.68-.67-.03-.35 0-.7.06-1.04.07-.36.34-.63.7-.67.59-.07 1.19-.09 1.79-.11.05 0 .15.13.16.2.02.29 0 .59 0 .89 0 .23-.02.46 0 .69.03.26-.07.4-.31.49zm28.66-8.44v.08h.21v.61h.09v-.61h.21v-.08zm1.23 0h-.12l-.12.33c-.03.09-.06.16-.07.23-.02-.07-.04-.15-.07-.23l-.12-.33h-.11l-.05.69h.08l.02-.3c0-.1.01-.2.01-.3.02.08.05.17.08.27l.11.33h.07l.12-.33c.03-.09.06-.18.09-.26 0 .08 0 .2.01.3l.02.3h.09s-.04-.69-.04-.69zm-10.71 4.18c0-.52-.07-1.05-.18-1.56-.22-1.06-.83-1.8-1.94-1.99-1.21-.22-2.37-.04-3.41.66-.1.07-.2.13-.38.24 0-.2-.02-.33-.02-.46 0-.34-.07-.4-.4-.4-.54 0-1.07 0-1.6 0-.31 0-.41.1-.41.41v8.92c0 .35.09.44.44.45h1.77c.26 0 .38-.1.38-.37 0-.59 0-1.18 0-1.77 0-1.57 0-3.14 0-4.72 0-.13.03-.33.12-.38.66-.4 1.36-.65 2.14-.52.43.07.73.32.81.77.06.31.1.62.1.93.01 1.87 0 3.74 0 5.6 0 .41.05.45.46.45h1.6c.46 0 .51-.05.51-.5 0-1.92.01-3.85 0-5.77zm9.1-.11c0-.3-.02-.59-.06-.88-.18-1.14-.79-1.95-1.9-2.32-.47-.16-.95-.26-1.45-.29-1.16-.07-2.31.07-3.45.32-.25.06-.35.19-.35.44v.94c0 .51.07.55.56.52.98-.06 1.96-.1 2.94-.1.63 0 .99.32 1.09.95.05.28.02.57.04.85 0 .19-.08.25-.26.24-.41 0-.83-.04-1.23 0-.69.08-1.4.16-2.07.35-.89.25-1.47.87-1.62 1.81-.06.39-.05.79-.03 1.19.08 1.61 1.3 2.66 2.91 2.53.81-.06 1.58-.26 2.24-.75.04-.03.1-.05.16-.08.03.04.05.06.05.07 0 .05.02.1.02.14.02.42.05.44.47.44h1.49c.4 0 .45-.05.45-.44 0-1.98 0-3.97 0-5.95zm-2.52 3.97c0 .18-.07.28-.23.35-.58.26-1.19.39-1.83.29-.46-.08-.73-.39-.73-.98.01-.99.23-1.44 1.44-1.53.36-.03.72 0 1.08 0 .2 0 .27.09.26.27v.83.77zm-16-7.13c0-.25-.11-.36-.37-.35-.73.03-1.43.27-2.02.7-.08.06-.16.11-.29.2-.01-.14-.02-.22-.02-.3 0-.41-.08-.49-.48-.49-.52 0-1.03 0-1.54 0-.47 0-.55.08-.55.55v8.72c0 .42.09.52.49.52h1.63c.44 0 .51-.07.51-.52 0-2.11 0-4.23 0-6.35 0-.21.06-.33.25-.42.64-.3 1.29-.52 2-.49.26.01.39-.09.38-.36 0-.47-.01-.93 0-1.4z"/></symbol><symbol viewBox="0 0 54.06 32" id="icon-logo-mastercard"><path d="m48.37 15.19c.6 0 .9.44.9 1.28 0 1.28-.55 2.21-1.34 2.21-.6 0-.9-.44-.9-1.31 0-1.28.57-2.18 1.34-2.18zm-10.09 3.08c0-.66.49-1.01 1.47-1.01.11 0 .19.03.38.03-.03.98-.54 1.64-1.23 1.64-.38 0-.63-.25-.63-.66zm-12-2.43v.33h-1.91c.16-.76.55-1.17 1.09-1.17s.82.3.82.85zm11.78-15.84c8.84 0 16 7.17 16 16s-7.17 16-16 16c-3.83 0-7.32-1.34-10.08-3.59 2.1-2.03 3.71-4.57 4.57-7.44h-1.33c-.83 2.55-2.3 4.81-4.2 6.63-1.89-1.82-3.34-4.08-4.17-6.62h-1.33c.86 2.86 2.43 5.4 4.52 7.43-2.75 2.22-6.22 3.59-10.04 3.59-8.83 0-16-7.16-16-16s7.16-16 16-16c3.82 0 7.29 1.38 10.04 3.6-2.09 2.02-3.66 4.57-4.52 7.42h1.33c.83-2.54 2.28-4.8 4.17-6.61 1.9 1.81 3.37 4.06 4.2 6.61h1.33c-.86-2.87-2.47-5.41-4.57-7.44 2.76-2.25 6.25-3.59 10.08-3.59zm-30.84 20.21h1.69l1.34-8.04h-2.67l-1.64 4.99-.08-4.99h-2.45l-1.34 8.04h1.58l1.04-6.14.14 6.14h1.17l2.21-6.19-.98 6.19zm7.25-.74.05-.41.38-2.32c.11-.74.14-.98.14-1.31 0-1.25-.79-1.91-2.26-1.91-.63 0-1.2.08-2.05.33l-.25 1.47.16-.03.25-.08c.38-.11.93-.16 1.42-.16.79 0 1.09.16 1.09.6 0 .11 0 .19-.06.41-.27-.03-.52-.05-.71-.05-1.91 0-3 .93-3 2.54 0 1.06.63 1.77 1.55 1.77.79 0 1.36-.25 1.8-.79l-.03.68h1.42l.03-.16.03-.25.03-.33zm3.52-3.16c-.74-.33-.82-.41-.82-.71 0-.35.3-.52.84-.52.33 0 .79.03 1.23.08l.25-1.5c-.44-.08-1.12-.14-1.5-.14-1.91 0-2.59 1.01-2.56 2.21 0 .82.38 1.39 1.28 1.83.71.33.82.44.82.71 0 .41-.3.6-.98.6-.52 0-.98-.08-1.53-.25l-.25 1.5.08.03.3.05c.11.03.25.06.46.06.38.05.71.05.93.05 1.8 0 2.65-.68 2.65-2.18 0-.9-.35-1.42-1.2-1.83zm3.76 2.43c-.41 0-.57-.14-.57-.46 0-.08 0-.16.03-.27l.46-2.73h.87l.22-1.61h-.87l.19-.98h-1.69l-.74 4.47-.08.52-.11.65c-.03.19-.06.41-.06.57 0 .95.49 1.44 1.36 1.44.38 0 .76-.06 1.23-.22l.22-1.44c-.11.05-.27.05-.46.05zm3.98.11c-.98 0-1.5-.38-1.5-1.15 0-.06 0-.11.03-.19h3.38c.16-.68.22-1.15.22-1.64 0-1.45-.9-2.37-2.32-2.37-1.72 0-2.97 1.66-2.97 3.9 0 1.94.98 2.94 2.89 2.94.63 0 1.17-.08 1.77-.27l.27-1.64c-.6.3-1.15.41-1.77.41zm5.43-3.33h.11c.16-.79.38-1.36.66-1.88l-.06-.03h-.16c-.57 0-.9.27-1.42 1.06l.16-1.01h-1.55l-1.06 6.54h1.72c.63-4.01.79-4.69 1.61-4.69zm4.96 4.61.3-1.83c-.54.27-1.04.41-1.44.41-1.01 0-1.61-.74-1.61-1.96 0-1.77.9-3.03 2.18-3.03.49 0 .93.14 1.53.44l.3-1.74c-.16-.05-.22-.08-.44-.16l-.68-.16c-.22-.05-.49-.08-.79-.08-2.26 0-3.84 2.02-3.84 4.88 0 2.16 1.15 3.49 3 3.49.46 0 .87-.08 1.5-.25zm5.4-1.06.35-2.32c.14-.74.14-.98.14-1.31 0-1.25-.76-1.91-2.24-1.91-.63 0-1.2.08-2.04.33l-.25 1.47.16-.03.22-.08c.38-.11.96-.16 1.45-.16.79 0 1.09.16 1.09.6 0 .11-.03.19-.08.41-.25-.03-.49-.05-.68-.05-1.91 0-3 .93-3 2.54 0 1.06.63 1.77 1.56 1.77.79 0 1.36-.25 1.8-.79l-.03.68h1.42v-.16l.03-.25.05-.33zm2.13 1.15c.63-4.01.79-4.69 1.61-4.69h.11c.16-.79.38-1.36.65-1.88l-.06-.03h-.16c-.57 0-.9.27-1.42 1.06l.16-1.01h-1.55l-1.04 6.54h1.69zm5.18 0h1.61l1.31-8.04h-1.69l-.38 2.29c-.46-.6-.96-.9-1.64-.9-1.5 0-2.78 1.85-2.78 4.03 0 1.64.82 2.7 2.07 2.7.63 0 1.12-.22 1.58-.71zm-37.52-1.94c0-.66.49-1.01 1.45-1.01.14 0 .22.03.38.03-.03.98-.52 1.64-1.23 1.64-.38 0-.6-.25-.6-.66z"/></symbol><symbol viewBox="0 0 57.13 16" id="icon-logo-paypal"><path d="m47.11 2.48c2.21-.04 4.63.62 4.07 3.28l-1.37 6.26h-3.16l.21-.95c-1.72 1.71-6.04 1.82-5.33-2.11.49-2.29 2.88-3.02 6.42-3.02.25-1.02-.46-1.27-1.65-1.24s-2.63.44-3.09.65l.28-2.29c.91-.18 2.11-.58 3.62-.58zm.21 6.41c.07-.29.11-.55.18-.84h-.77c-.6 0-1.58.15-1.93.76-.46.73.18 1.35.88 1.31.81-.04 1.47-.4 1.65-1.24zm6.56-8.89h3.24l-2.65 12.02h-3.21l2.61-12.02zm-14.74.04c1.69 0 3.73 1.27 3.13 4.08-.53 2.48-2.5 3.93-4.89 3.93h-2.43l-.88 3.97h-3.41l2.61-11.98h5.88zm-.1 4.08c.21-.91-.32-1.64-1.2-1.64h-1.69l-.7 3.28h1.58c.88 0 1.79-.73 2.01-1.64zm-22.69-1.64c2.18-.04 4.61.62 4.06 3.28l-1.35 6.26h-3.15l.21-.95c-1.66 1.71-5.93 1.82-5.24-2.11.49-2.29 2.84-3.02 6.34-3.02.21-1.02-.49-1.27-1.66-1.24s-2.6.44-3.02.65l.28-2.29c.87-.18 2.05-.58 3.54-.58zm.24 6.41c.03-.29.1-.55.17-.84h-.8c-.56 0-1.52.15-1.87.76-.45.73.14 1.35.83 1.31.8-.04 1.49-.4 1.66-1.24zm11.94-6.24h3.26l-7.5 13.35h-3.53l2.31-3.92-1.29-9.43h3.16l.51 5.58 3.09-5.58zm-20.03-2.61c1.73 0 3.74 1.27 3.14 4.08-.53 2.48-2.5 3.93-4.87 3.93h-2.47l-.85 3.97h-3.45l2.61-11.98s5.89 0 5.89 0zm-.11 4.08c.25-.91-.32-1.64-1.16-1.64h-1.69l-.74 3.28h1.62c.88 0 1.76-.73 1.97-1.64z"/></symbol><symbol viewBox="0 0 25.87 25.87" id="icon-logo-small"><path d="m17.65 12.12h-3.32c-.11 0-.2.09-.2.19v2.33c0 .11.09.19.2.19h3.32c.95 0 1.54-.52 1.54-1.36s-.59-1.36-1.54-1.36zm-2.62-2.42h3.23c2.51 0 3.99 1.57 3.99 3.3 0 1.35-.92 2.35-1.89 2.78-.16.07-.15.28.01.35 1.13.44 1.94 1.62 1.94 3 0 1.96-1.31 3.51-3.84 3.51h-6.96c-.11 0-.2-.09-.2-.19v-9.03l-11.07 11.07c-.51.51-.15 1.38.57 1.38h24.25c.45 0 .81-.36.81-.81v-24.25c0-.72-.87-1.08-1.38-.57zm-.7 7.56c-.11 0-.2.09-.2.19v2.56c0 .11.09.19.2.19h3.44c1.05 0 1.68-.54 1.68-1.47 0-.82-.59-1.47-1.68-1.47z" fill-rule="evenodd"/></symbol><symbol viewBox="0 0 49.44 16" id="icon-logo-visa"><path d="m14.06.28h4.24l-6.3 15.47h-4.24s-3.26-12.32-3.26-12.32c2.32.95 4.38 3.02 5.22 5.27l.42 2.15zm3.36 15.49 2.5-15.5h4l-2.5 15.5zm14.58-9.28c2.31 1.11 3.38 2.44 3.36 4.21-.03 3.22-2.76 5.3-6.97 5.3-1.8-.02-3.53-.39-4.46-.83l.56-3.47.51.25c1.32.58 2.17.81 3.77.81 1.15 0 2.39-.48 2.4-1.51 0-.68-.52-1.17-2.08-1.92-1.52-.74-3.53-1.98-3.51-4.21.02-3.01 2.81-5.12 6.76-5.12 1.55 0 2.79.34 3.59.65l-.54 3.36-.36-.18c-.74-.31-1.69-.62-2.99-.6-1.57 0-2.29.69-2.29 1.33-.01.73.85 1.2 2.25 1.92zm14.2-6.2 3.24 15.49h-3.71s-.37-1.78-.49-2.32c-.58 0-4.67 0-5.12 0-.16.42-.84 2.33-.84 2.33h-4.2l5.94-14.2c.42-1.01 1.14-1.28 2.1-1.28h3.09zm-4.94 9.99h3.32c-.16-.77-.93-4.47-.93-4.47l-.27-1.34c-.2.58-.55 1.52-.53 1.48 0 0-1.26 3.44-1.59 4.33zm-31.54-1.57c-1.65-4.58-5.28-7-9.72-8.12l.05-.32h6.45c.87.03 1.57.33 1.82 1.31l1.4 7.12z"/></symbol><symbol viewBox="0 0 30.71 30.48" id="icon-pinterest"><path d="m0 15.24c0 6.24 3.78 11.6 9.19 13.96-.04-1.06 0-2.34.27-3.5.3-1.24 1.98-8.3 1.98-8.3s-.49-.97-.49-2.41c0-2.26 1.32-3.94 2.96-3.94 1.4 0 2.07 1.04 2.07 2.29 0 1.39-.9 3.48-1.36 5.41-.39 1.62.82 2.93 2.42 2.93 2.91 0 4.87-3.71 4.87-8.1 0-3.34-2.27-5.84-6.39-5.84-4.66 0-7.56 3.45-7.56 7.3 0 1.33.39 2.26 1.01 2.99.28.33.32.47.22.85-.07.28-.24.95-.31 1.22-.1.39-.42.52-.77.38-2.14-.87-3.14-3.2-3.14-5.82 0-4.33 3.68-9.52 10.98-9.52 5.86 0 9.72 4.21 9.72 8.73 0 5.98-3.35 10.44-8.28 10.44-1.66 0-3.22-.89-3.75-1.9 0 0-.89 3.51-1.08 4.19-.32 1.17-.96 2.35-1.55 3.26 1.38.41 2.84.62 4.35.62 8.48 0 15.35-6.82 15.35-15.24s-6.87-15.24-15.35-15.24-15.36 6.82-15.36 15.24z"/></symbol><symbol viewBox="0 0 20 20" id="icon-print"><g fill="#1c274c"><path d="m14 4h-8c-2.83 0-4.24 0-5.12.88-.88.88-.88 2.29-.88 5.12s0 4.24.88 5.12c.49.49 1.16.71 2.15.81-.03-.72-.03-1.57-.03-2.43-.28 0-.5-.22-.5-.5s.22-.5.5-.5h14c.28 0 .5.22.5.5s-.22.5-.5.5c0 .85 0 1.7-.03 2.43.99-.09 1.65-.31 2.15-.81.88-.88.88-2.29.88-5.12s0-4.24-.88-5.12-2.29-.88-5.12-.88zm-7 4.75c.41 0 .75-.34.75-.75s-.34-.75-.75-.75h-3c-.41 0-.75.34-.75.75s.34.75.75.75zm8 .25c.55 0 1-.45 1-1s-.45-1-1-1-1 .45-1 1 .45 1 1 1z" fill-rule="evenodd"/><path d="m15.12.88c-.88-.88-2.29-.88-5.12-.88s-4.24 0-5.12.88c-.49.49-.71 1.15-.8 2.14.56-.01 1.18-.01 1.85-.01h8.14c.68 0 1.3 0 1.85.01-.1-.98-.31-1.64-.8-2.14z"/><path d="m16 13.5c0 2.83 0 4.74-.88 5.62s-2.29.88-5.12.88-4.24 0-5.12-.88-.88-2.79-.88-5.62z"/></g></symbol><symbol viewBox="0 0 14 2" id="icon-remove"><path d="m13 2h-12c-.55 0-1-.45-1-1s.45-1 1-1h12c.55 0 1 .45 1 1s-.45 1-1 1z"/></symbol><symbol viewBox="0 0 13 13" id="icon-rss"><path d="m.75 0c-.41 0-.75.34-.75.75s.34.75.75.75c5.94 0 10.75 4.81 10.75 10.75 0 .41.34.75.75.75s.75-.34.75-.75c0-6.77-5.48-12.25-12.25-12.25z"/><path d="m.75 5c-.41 0-.75.34-.75.75s.34.75.75.75c3.18 0 5.75 2.57 5.75 5.75 0 .41.34.75.75.75s.75-.34.75-.75c0-4-3.25-7.25-7.25-7.25zm.75 5c-.83 0-1.5.67-1.5 1.5s.67 1.5 1.5 1.5 1.5-.67 1.5-1.5-.67-1.5-1.5-1.5z"/></symbol><symbol viewBox="0 0 19.82 18.97" id="icon-star"><path d="m8.7.81c.45-1.08 1.98-1.08 2.42 0l2.08 5.01 5.4.43c1.16.09 1.64 1.55.75 2.31l-4.12 3.53 1.26 5.27c.27 1.14-.96 2.03-1.96 1.42l-4.63-2.83-4.63 2.83c-1 .61-2.23-.29-1.96-1.42l1.26-5.27-4.11-3.54c-.89-.76-.41-2.21.75-2.31l5.4-.43z" fill-rule="evenodd"/></symbol><symbol viewBox="0 0 19.2 19.2" id="icon-stumbleupon"><path d="m9.6 0c-5.3 0-9.6 4.3-9.6 9.6s4.3 9.6 9.6 9.6 9.6-4.3 9.6-9.6-4.3-9.6-9.6-9.6zm0 7.39c-.29 0-.53.24-.53.53v3.17c-.04 1.25-1.08 2.23-2.33 2.19-1.2-.04-2.16-1-2.19-2.19v-1.33h1.73v1.33c0 .29.24.53.53.53s.53-.24.53-.53v-3.17c.03-1.25 1.06-2.24 2.31-2.21 1.21.03 2.19 1 2.21 2.21v.6l-1.04.33-.69-.33v-.6c0-.29-.24-.53-.53-.53zm5.05 3.7c-.03 1.25-1.06 2.24-2.31 2.21-1.21-.03-2.19-1-2.21-2.21v-1.35l.69.33 1.04-.33v1.35c0 .29.24.53.53.53s.53-.24.53-.53v-1.33h1.73z"/></symbol><symbol viewBox="0 0 18.39 32" id="icon-tumblr"><path d="m16.85 25.56c-.59.28-1.73.53-2.58.55-2.56.07-3.06-1.8-3.08-3.16v-9.96h6.43v-4.84h-6.4v-8.15h-4.69c-.08 0-.21.07-.23.24-.27 2.49-1.44 6.87-6.3 8.62v4.13h3.24v10.46c0 3.58 2.64 8.66 9.61 8.55 2.35-.04 4.96-1.03 5.54-1.87l-1.54-4.56"/></symbol><symbol viewBox="0 0 41.46 30.48" id="icon-twitter"><path d="m36.58 4.82c1.76-.95 3.1-2.46 3.74-4.26-1.64.88-3.46 1.52-5.4 1.87-1.55-1.5-3.76-2.43-6.21-2.43-4.7 0-8.51 3.44-8.51 7.69 0 .6.08 1.19.22 1.75-7.07-.32-13.34-3.38-17.53-8.04-.73 1.14-1.15 2.46-1.15 3.87 0 2.67 1.5 5.02 3.78 6.4-1.39-.04-2.71-.39-3.85-.96v.1c0 3.73 2.93 6.84 6.82 7.54-.71.18-1.47.27-2.24.27-.55 0-1.08-.05-1.6-.14 1.08 3.06 4.22 5.28 7.95 5.34-2.91 2.06-6.58 3.29-10.56 3.29-.69 0-1.36-.04-2.03-.11 3.76 2.18 8.23 3.46 13.04 3.46 15.65 0 24.2-11.72 24.2-21.89 0-.33 0-.66-.03-.99 1.66-1.09 3.1-2.44 4.24-3.98-1.53.61-3.17 1.03-4.88 1.21z"/></symbol><symbol viewBox="0 0 31.98 22.49" id="icon-youtube"><path d="m31.66 4.85s-.31-2.2-1.27-3.17c-1.22-1.27-2.58-1.28-3.2-1.35-4.48-.32-11.19-.32-11.19-.32h-.01s-6.71 0-11.19.32c-.63.07-1.99.08-3.2 1.35-.96.97-1.27 3.17-1.27 3.17s-.32 2.59-.32 5.18v2.43c0 2.59.32 5.18.32 5.18s.31 2.2 1.27 3.17c1.22 1.27 2.81 1.23 3.53 1.37 2.56.25 10.87.32 10.87.32s6.72-.01 11.2-.33c.63-.07 1.99-.08 3.2-1.35.96-.97 1.27-3.17 1.27-3.17s.32-2.59.32-5.18v-2.43c0-2.59-.32-5.18-.32-5.18zm-18.97 10.55v-8.99s8.64 4.51 8.64 4.51z"/></symbol></svg>