<svg viewBox="0 0 21.5 21.5" xmlns="http://www.w3.org/2000/svg"><path d="m16.75 21.5h-14c-.73 0-1.42-.29-1.94-.81s-.81-1.21-.81-1.94v-14c0-.73.29-1.42.81-1.94s1.21-.81 1.94-.81h5.34c.41 0 .75.34.75.75s-.34.75-.75.75h-5.34c-.33 0-.65.13-.88.37s-.37.55-.37.88v14c0 .33.13.65.37.88s.55.37.88.37h14c.33 0 .65-.13.88-.37s.37-.55.37-.88v-5.34c0-.41.34-.75.75-.75s.75.34.75.75v5.34c0 .73-.29 1.42-.81 1.94s-1.21.81-1.94.81zm-6-6h-4c-.41 0-.75-.34-.75-.75v-4c0-.2.08-.39.22-.53l10-10c.29-.29.77-.29 1.06 0l4 4c.29.29.29.77 0 1.06l-10 10c-.14.14-.33.22-.53.22zm-3.25-1.5h2.94l9.25-9.25-2.94-2.94-9.25 9.25z"/></svg>