<svg xmlns="http://www.w3.org/2000/svg" version="1.0" width="126.667" height="94.667" viewBox="0 0 95 71"><g fill="#8c8c8c"><path d="M38.8 2c-6.9 1.7-15.6 6.9-22.3 13.1C10 21.2 1 33.5 1 36.2c0 2.6 9.5 15.1 16.1 21.3 11.4 10.6 24.4 15 37.5 12.8 9-1.6 16.4-5.6 24.9-13.5 7.1-6.6 15.5-18 15.5-21 0-2.6-9.4-15.1-16.1-21.2-9-8.3-18.4-12.7-28.6-13.2-4.3-.2-9.5.1-11.5.6m23.3 8.2c2.9 1.4 7.7 4.4 10.6 6.7C78.4 21.5 88 33.5 88 36.1s-9.6 14.5-15.3 19.1c-8.9 7-14.9 9.3-24.7 9.3-7.6 0-9.3-.4-15.1-3.2-3.6-1.8-8.7-5.1-11.3-7.4C16.7 49.6 8 38.1 8 36c0-3.3 11.4-16.7 18.4-21.5 11.7-8 24.3-9.6 35.7-4.3"/><path d="M40.8 23.1c-2.4 1.2-4.6 3.5-5.9 6.1-5.5 10.7 2.8 22.9 14.7 21.5 14.4-1.6 18.3-20.2 5.8-27.4-4.8-2.8-9.7-2.8-14.6-.2m13.3 6.8c2 2 2.9 3.9 2.9 6.1 0 4.3-4.7 9-9 9s-9-4.7-9-9c0-2.2.9-4.1 2.9-6.1S45.8 27 48 27s4.1.9 6.1 2.9"/></g></svg>