<svg viewBox="0 0 25.87 25.87" xmlns="http://www.w3.org/2000/svg"><path d="m17.65 12.12h-3.32c-.11 0-.2.09-.2.19v2.33c0 .11.09.19.2.19h3.32c.95 0 1.54-.52 1.54-1.36s-.59-1.36-1.54-1.36zm-2.62-2.42h3.23c2.51 0 3.99 1.57 3.99 3.3 0 1.35-.92 2.35-1.89 2.78-.16.07-.15.28.01.35 1.13.44 1.94 1.62 1.94 3 0 1.96-1.31 3.51-3.84 3.51h-6.96c-.11 0-.2-.09-.2-.19v-9.03l-11.07 11.07c-.51.51-.15 1.38.57 1.38h24.25c.45 0 .81-.36.81-.81v-24.25c0-.72-.87-1.08-1.38-.57zm-.7 7.56c-.11 0-.2.09-.2.19v2.56c0 .11.09.19.2.19h3.44c1.05 0 1.68-.54 1.68-1.47 0-.82-.59-1.47-1.68-1.47z" fill-rule="evenodd"/></svg>