<svg viewBox="0 0 176.51 33.86" xmlns="http://www.w3.org/2000/svg"><g fill-rule="evenodd"><path d="m69.65 26.49c-6.52 4.81-15.98 7.37-24.12 7.37-11.41 0-21.69-4.22-29.47-11.24-.61-.55-.07-1.31.67-.88 8.39 4.88 18.77 7.82 29.49 7.82 7.23 0 15.18-1.5 22.49-4.6 1.1-.47 2.03.73.95 1.52z"/><path d="m72.37 23.39c-.83-1.07-5.51-.51-7.62-.25-.64.08-.74-.48-.16-.88 3.73-2.62 9.85-1.87 10.56-.99.72.89-.19 7.02-3.69 9.95-.54.45-1.05.21-.81-.38.79-1.97 2.55-6.37 1.71-7.44z"/><path d="m64.9 3.72v-2.54c0-.39.29-.65.65-.64h11.42c.37 0 .66.26.66.64v2.19c0 .37-.31.85-.86 1.6l-5.92 8.45c2.2-.05 4.52.28 6.51 1.4.45.25.57.63.61.99v2.72c0 .38-.41.81-.84.58-3.51-1.84-8.18-2.04-12.07.02-.4.21-.81-.22-.81-.59v-2.59c0-.41 0-1.12.42-1.75l6.85-9.83h-5.97c-.36 0-.66-.26-.66-.64z"/><path d="m23.23 19.64h-3.48c-.33-.02-.59-.27-.62-.59v-17.83c0-.36.3-.64.67-.64h3.24c.34.02.61.27.63.6v2.33h.07c.84-2.25 2.43-3.3 4.57-3.3s3.54 1.05 4.51 3.3c.84-2.25 2.76-3.3 4.8-3.3 1.46 0 3.05.6 4.02 1.95 1.1 1.5.88 3.68.88 5.59v11.26c0 .35-.3.64-.67.64h-3.47c-.35-.02-.62-.3-.62-.64v-9.45c0-.75.06-2.63-.1-3.34-.26-1.2-1.04-1.54-2.04-1.54-.84 0-1.72.56-2.08 1.46s-.32 2.4-.32 3.42v9.45c0 .35-.3.64-.67.64h-3.47c-.35-.02-.62-.3-.62-.64v-9.45c0-1.99.32-4.91-2.14-4.91s-2.4 2.85-2.4 4.91v9.45c0 .35-.3.64-.67.64z"/><path d="m87.49 3.84c-2.56 0-2.72 3.49-2.72 5.67s-.03 6.83 2.69 6.83 2.82-3.75 2.82-6.04c0-1.5-.07-3.3-.52-4.73-.39-1.24-1.17-1.73-2.27-1.73zm-.03-3.64c5.16 0 7.95 4.43 7.95 10.06s-3.08 9.76-7.95 9.76-7.82-4.43-7.82-9.95 2.79-9.87 7.82-9.87z"/><path d="m102.09 19.64h-3.46c-.35-.02-.62-.3-.62-.64v-17.84c.02-.33.31-.58.66-.58h3.22c.3.01.55.22.62.5v2.73h.06c.97-2.44 2.33-3.6 4.74-3.6 1.56 0 3.08.56 4.06 2.1.91 1.43.91 3.83.91 5.55v11.22c-.04.32-.32.56-.67.56h-3.48c-.32-.02-.58-.26-.62-.56v-9.68c0-1.95.23-4.81-2.17-4.81-.84 0-1.62.56-2.01 1.43-.49 1.09-.55 2.18-.55 3.38v9.6c0 .35-.31.64-.68.64z"/><path d="m59.29 19.6c-.23.21-.56.22-.82.08-1.15-.96-1.36-1.4-1.99-2.32-1.91 1.94-3.26 2.53-5.73 2.53-2.92 0-5.2-1.81-5.2-5.42 0-2.82 1.53-4.74 3.71-5.68 1.89-.83 4.52-.98 6.53-1.2v-.45c0-.83.06-1.8-.42-2.52-.42-.64-1.24-.9-1.95-.9-1.33 0-2.5.68-2.79 2.09-.06.31-.29.62-.6.64l-3.37-.36c-.28-.07-.6-.29-.52-.73.76-4.04 4.36-5.3 7.63-5.33h.26c1.67.02 3.81.48 5.11 1.73 1.69 1.58 1.53 3.69 1.53 5.98v5.41c0 1.63.68 2.34 1.31 3.22.22.32.27.69-.01.92-.71.59-1.97 1.69-2.66 2.31h-.01zm-3.5-8.47c0 1.35.03 2.48-.65 3.69-.55.98-1.43 1.58-2.41 1.58-1.33 0-2.11-1.01-2.11-2.52 0-2.96 2.65-3.5 5.17-3.5z"/><path d="m13.74 19.6c-.23.21-.56.22-.82.08-1.15-.96-1.36-1.4-1.99-2.32-1.91 1.94-3.26 2.53-5.73 2.53-2.93 0-5.2-1.81-5.2-5.42 0-2.82 1.53-4.74 3.71-5.68 1.88-.83 4.52-.98 6.53-1.2v-.45c0-.83.07-1.8-.42-2.52-.42-.64-1.24-.9-1.95-.9-1.33 0-2.51.68-2.79 2.09-.06.31-.29.62-.6.64l-3.37-.36c-.29-.07-.6-.29-.52-.73.76-4.04 4.36-5.3 7.63-5.33h.26c1.67.02 3.81.48 5.11 1.73 1.69 1.58 1.53 3.69 1.53 5.98v5.41c0 1.63.68 2.34 1.31 3.22.22.32.27.69-.01.92-.71.59-1.97 1.69-2.66 2.31zm-3.5-8.47c0 1.35.03 2.48-.65 3.69-.55.98-1.43 1.58-2.41 1.58-1.33 0-2.11-1.01-2.11-2.52 0-2.96 2.65-3.5 5.17-3.5z"/><path d="m159.77 26.04v-1.31c0-.37.18-.63.57-.61.73.1 1.75.21 2.48.06.95-.2 1.64-.87 2.04-1.8.57-1.3.95-2.35 1.18-3.04l-7.23-17.91c-.12-.3-.16-.87.45-.87h2.53c.48 0 .68.31.79.61l5.24 14.55 5-14.55c.1-.3.31-.61.79-.61h2.38c.6 0 .57.56.45.87l-7.17 18.47c-.93 2.46-2.16 6.37-4.95 7.05-1.4.36-3.16.23-4.19-.2-.26-.13-.36-.48-.36-.71z"/><path d="m156.4 18.55c0 .33-.27.61-.61.61h-1.78c-.38 0-.65-.28-.7-.61l-.18-1.21c-.82.69-1.82 1.3-2.91 1.73-2.1.81-4.51.95-6.56-.31-1.48-.91-2.27-2.69-2.27-4.52 0-1.42.44-2.82 1.41-3.84 1.29-1.4 3.17-2.08 5.43-2.08 1.37 0 3.32.16 4.75.63v-2.44c0-2.48-1.04-3.56-3.8-3.56-2.11 0-3.72.32-5.96 1.02-.36.01-.57-.26-.57-.59v-1.39c0-.33.29-.66.59-.75 1.6-.7 3.87-1.13 6.28-1.21 3.14 0 6.88.71 6.88 5.54v13.01zm-3.42-3.56v-3.68c-1.2-.33-3.18-.46-3.94-.46-1.21 0-2.53.29-3.23 1.03-.52.55-.75 1.33-.75 2.09 0 .98.34 1.96 1.13 2.45.92.62 2.35.55 3.69.17 1.29-.37 2.5-1.01 3.1-1.59z"/><path d="m130.13 2.99c3.95 0 5.03 3.11 5.03 6.67.02 2.4-.42 4.54-1.66 5.77-.93.92-1.97 1.17-3.53 1.17-1.39 0-3.22-.73-4.59-1.74v-10.18c1.42-1.09 3.24-1.68 4.75-1.68zm-5.36 23.68h-2.39c-.33 0-.61-.27-.61-.61v-24.86c0-.33.27-.61.61-.61h1.83c.38 0 .65.28.7.61l.19 1.3c1.71-1.52 3.91-2.49 6.01-2.49 5.88 0 7.81 4.84 7.81 9.88 0 5.39-2.96 9.72-7.96 9.72-2.11 0-4.07-.78-5.59-2.13v8.59c0 .33-.27.61-.61.61z"/></g></svg>