<svg enable-background="new 0 0 436 173.1" viewBox="0 0 436 173.1" xmlns="http://www.w3.org/2000/svg"><path d="m260.5 20.8c-7.5-7.1-17.4-11-27.7-10.8h-42.7v125.3h16.1v-50.7h26.6c11 0 20.2-3.5 27.7-10.7 7.5-6.8 11.8-16.5 11.5-26.6.2-10.1-4.1-19.7-11.5-26.5zm-11.4 41.9c-4.2 4.3-9.9 6.7-15.9 6.5h-27v-43.8h27c6-.2 11.8 2.2 15.9 6.7.2.1.3.3.4.4 8.3 8.5 8.1 22-.4 30.2z"/><path d="m337.3 56.3c-6.9-6.4-16.3-9.5-28.2-9.5-15.3 0-26.8 5.6-34.6 16.8l14.2 8.9c5.2-7.6 12.4-11.4 21.3-11.4 5.7-.1 11.3 2 15.5 5.9 4.2 3.5 6.7 8.7 6.6 14.2v3.7c-6.2-3.5-14.1-5.2-23.6-5.2-11.2 0-20.2 2.6-26.9 7.9-6.7 5.2-10.1 12.3-10.1 21.2-.2 8.1 3.4 15.8 9.5 21 6.4 5.6 14.3 8.4 23.7 8.4 11.1 0 19.9-4.9 26.6-14.7h.7v11.9h15.4v-52.9c.2-11.1-3.2-19.8-10.1-26.2zm-13.1 60c-4.8 4.8-11.3 7.5-18.1 7.5-4.5.1-9-1.4-12.5-4.2-3.4-2.4-5.4-6.3-5.3-10.5 0-4.7 2.2-8.6 6.6-11.8s9.8-4.7 16.4-4.7c9 0 16 2 21 6-.1 6.7-2.7 12.6-8.1 17.7z"/><path d="m418.5 49.6-24.9 61.6h-.3l-25.6-61.6h-17.5l35.4 80.3-20 43.2h16.6l53.8-123.5z"/><path d="m72 59v27.7h38.9c-1.6 9-6.8 16.9-14.4 21.9-6.5 4.4-14.8 6.9-24.5 6.9-18.8 0-34.7-12.7-40.4-29.7-3-8.9-3-18.6 0-27.6 5.7-17 21.6-29.7 40.4-29.7 10.3-.2 20.2 3.7 27.6 10.8l20.5-20.5c-13-12.3-30.2-19-48.1-18.8-27.2 0-52.1 15.4-64.3 39.7-10.2 20.3-10.2 44.3 0 64.6 12.2 24.3 37.1 39.7 64.3 39.7 19.4 0 35.8-6.4 47.7-17.4 13.6-12.5 21.4-31.1 21.4-53 0-4.9-.4-9.8-1.2-14.6z"/></svg>