<svg viewBox="0 0 69.5 24" xmlns="http://www.w3.org/2000/svg"><path d="m69.1 13.22.4 9.09c-.69.31-3.29 1.69-4.26 1.69h-4.79v-.66c-.55.44-1.55.66-2.47.66h-15.05v-2.47c0-.34-.06-.34-.35-.34h-.26v2.81h-4.96v-2.92c-.83.4-1.75.4-2.58.4h-.54v2.52h-6.05l-1.43-1.66-1.58 1.66h-9.72v-10.78h9.89l1.41 1.66 1.55-1.66h6.65c.78 0 2.04.11 2.58.66v-.66h5.94c.6 0 1.75.11 2.52.66v-.66h8.95v.66c.52-.43 1.43-.66 2.26-.66h4.99v.66c.55-.37 1.32-.66 2.32-.66zm-34.2 6.65c1.58 0 3.18-.43 3.18-2.58s-1.63-2.52-3.07-2.52h-5.88l-2.38 2.52-2.24-2.52h-7.43v7.67h7.31l2.35-2.51 2.27 2.51h3.56v-2.57h2.32zm11.1-.32c-.17-.23-.49-.52-.95-.66.52-.17 1.32-.83 1.32-2.04 0-.89-.31-1.38-.92-1.72-.6-.32-1.32-.37-2.27-.37h-4.22v7.67h1.86v-2.8h1.98c.66 0 1.03.06 1.32.34.32.37.32 1.03.32 1.55v.9h1.84v-1.48c0-.69-.06-1.03-.29-1.41zm7.57-3.18v-1.6h-6.14v7.67h6.14v-1.56h-4.33v-1.55h4.24v-1.55h-4.24v-1.41zm4.67 6.07c1.86 0 2.93-.76 2.93-2.39 0-.77-.23-1.26-.54-1.66-.46-.37-1.12-.6-2.15-.6h-1c-.26 0-.49-.06-.72-.11-.2-.09-.37-.26-.37-.55 0-.26.06-.43.29-.6.14-.11.37-.11.72-.11h3.38v-1.63h-3.67c-1.98 0-2.64 1.2-2.64 2.29 0 2.44 2.15 2.32 3.84 2.38.34 0 .54.06.66.17.12.09.23.32.23.54 0 .2-.12.37-.23.49-.17.11-.37.17-.72.17h-3.56v1.62h3.56zm7.2 0c1.86 0 2.92-.76 2.92-2.39 0-.77-.23-1.26-.54-1.66-.46-.37-1.12-.6-2.15-.6h-1c-.26 0-.49-.06-.72-.11-.2-.09-.37-.26-.37-.55 0-.26.12-.43.29-.6.14-.11.37-.11.72-.11h3.38v-1.63h-3.67c-1.92 0-2.64 1.2-2.64 2.29 0 2.44 2.15 2.32 3.84 2.38.34 0 .54.06.66.17.11.09.23.32.23.54 0 .2-.11.37-.23.49s-.37.17-.72.17h-3.56v1.62h3.56zm-21.48-5.92c.23.11.37.34.37.66 0 .34-.14.6-.37.77-.29.11-.54.11-.89.11l-2.24.06v-1.75h2.24c.34 0 .66 0 .89.14zm-7.86-11.87c-.29.17-.54.17-.92.17h-2.26v-1.69h2.26c.32 0 .69 0 .92.11.23.14.34.37.34.72 0 .32-.11.6-.34.69zm14.68-1.81 1.26 3.04h-2.52zm-20.01 18.95-2.84-3.18 2.84-3.01zm4.24-5.42c.66 0 1.09.26 1.09.92s-.43 1.03-1.09 1.03h-2.44v-1.95s2.44 0 2.44 0zm-29.24-10.49 1.29-3.04 1.26 3.04zm13.13 10.49h4.62l2.04 2.24-2.09 2.26h-4.56v-1.55h4.07v-1.55h-4.07s0-1.41 0-1.4zm.17-7-.55 1.38h-3.24l-.55-1.32v1.32h-6.22l-.66-1.75h-1.58l-.72 1.75h-5.55l2.39-5.65 2.24-5.1h4.79l.66 1.26v-1.26h5.59l1.26 2.72 1.23-2.72h17.83c.83 0 1.55.14 2.09.6v-.6h4.9v.6c.8-.46 1.86-.6 3.07-.6h7.08l.66 1.26v-1.26h5.22l.78 1.26v-1.26h5.1v10.75h-5.16l-1-1.64v1.64h-6.42l-.72-1.75h-1.58l-.72 1.75h-3.35c-1.32 0-2.29-.32-2.95-.66v.66h-7.97v-2.47c0-.34-.06-.4-.29-.4h-.26v2.87h-15.4zm24.29-6.97c-.83.83-.97 1.86-1 3.01 0 1.38.34 2.27.95 2.93.66.66 1.81.86 2.69.86h2.15l.72-1.69h3.84l.72 1.69h3.73v-5.76l3.47 5.76h2.64v-7.68h-1.89v5.33l-3.24-5.33h-2.84v7.25l-3.1-7.25h-2.72l-2.64 6.05h-.83c-.49 0-1-.11-1.26-.37-.34-.4-.49-1-.49-1.84s.14-1.4.49-1.75c.37-.32.77-.43 1.43-.43h1.75v-1.66h-1.75c-1.26 0-2.26.29-2.81.89zm-3.78-.89v7.68h1.86v-7.67s-1.86 0-1.86 0zm-8.46 0v7.68h1.81v-2.78h1.98c.66 0 1.09.06 1.38.31.32.4.26 1.06.26 1.49v.98h1.89v-1.52c0-.66-.06-1-.34-1.38-.17-.23-.49-.49-.89-.66.52-.23 1.32-.83 1.32-2.04 0-.89-.37-1.38-.98-1.75-.6-.34-1.26-.34-2.21-.34h-4.22zm-7.48 0v7.68h6.16v-1.58h-4.3v-1.55h4.24v-1.58h-4.24v-1.38h4.3v-1.61h-6.17zm-7.51 7.68h1.58l2.69-6.02v6.02h1.86v-7.67h-3.01l-2.26 5.22-2.41-5.22h-2.95v7.25l-3.15-7.25h-2.72l-3.3 7.68h1.98l.69-1.69h3.87l.69 1.69h3.76v-6.02l2.7 6.02z"/></svg>