<svg viewBox="0 0 49.44 16" xmlns="http://www.w3.org/2000/svg"><path d="m14.06.28h4.24l-6.3 15.47h-4.24s-3.26-12.32-3.26-12.32c2.32.95 4.38 3.02 5.22 5.27l.42 2.15zm3.36 15.49 2.5-15.5h4l-2.5 15.5zm14.58-9.28c2.31 1.11 3.38 2.44 3.36 4.21-.03 3.22-2.76 5.3-6.97 5.3-1.8-.02-3.53-.39-4.46-.83l.56-3.47.51.25c1.32.58 2.17.81 3.77.81 1.15 0 2.39-.48 2.4-1.51 0-.68-.52-1.17-2.08-1.92-1.52-.74-3.53-1.98-3.51-4.21.02-3.01 2.81-5.12 6.76-5.12 1.55 0 2.79.34 3.59.65l-.54 3.36-.36-.18c-.74-.31-1.69-.62-2.99-.6-1.57 0-2.29.69-2.29 1.33-.01.73.85 1.2 2.25 1.92zm14.2-6.2 3.24 15.49h-3.71s-.37-1.78-.49-2.32c-.58 0-4.67 0-5.12 0-.16.42-.84 2.33-.84 2.33h-4.2l5.94-14.2c.42-1.01 1.14-1.28 2.1-1.28h3.09zm-4.94 9.99h3.32c-.16-.77-.93-4.47-.93-4.47l-.27-1.34c-.2.58-.55 1.52-.53 1.48 0 0-1.26 3.44-1.59 4.33zm-31.54-1.57c-1.65-4.58-5.28-7-9.72-8.12l.05-.32h6.45c.87.03 1.57.33 1.82 1.31l1.4 7.12z"/></svg>