<svg viewBox="0 0 57.13 16" xmlns="http://www.w3.org/2000/svg"><path d="m47.11 2.48c2.21-.04 4.63.62 4.07 3.28l-1.37 6.26h-3.16l.21-.95c-1.72 1.71-6.04 1.82-5.33-2.11.49-2.29 2.88-3.02 6.42-3.02.25-1.02-.46-1.27-1.65-1.24s-2.63.44-3.09.65l.28-2.29c.91-.18 2.11-.58 3.62-.58zm.21 6.41c.07-.29.11-.55.18-.84h-.77c-.6 0-1.58.15-1.93.76-.46.73.18 1.35.88 1.31.81-.04 1.47-.4 1.65-1.24zm6.56-8.89h3.24l-2.65 12.02h-3.21l2.61-12.02zm-14.74.04c1.69 0 3.73 1.27 3.13 4.08-.53 2.48-2.5 3.93-4.89 3.93h-2.43l-.88 3.97h-3.41l2.61-11.98h5.88zm-.1 4.08c.21-.91-.32-1.64-1.2-1.64h-1.69l-.7 3.28h1.58c.88 0 1.79-.73 2.01-1.64zm-22.69-1.64c2.18-.04 4.61.62 4.06 3.28l-1.35 6.26h-3.15l.21-.95c-1.66 1.71-5.93 1.82-5.24-2.11.49-2.29 2.84-3.02 6.34-3.02.21-1.02-.49-1.27-1.66-1.24s-2.6.44-3.02.65l.28-2.29c.87-.18 2.05-.58 3.54-.58zm.24 6.41c.03-.29.1-.55.17-.84h-.8c-.56 0-1.52.15-1.87.76-.45.73.14 1.35.83 1.31.8-.04 1.49-.4 1.66-1.24zm11.94-6.24h3.26l-7.5 13.35h-3.53l2.31-3.92-1.29-9.43h3.16l.51 5.58 3.09-5.58zm-20.03-2.61c1.73 0 3.74 1.27 3.14 4.08-.53 2.48-2.5 3.93-4.87 3.93h-2.47l-.85 3.97h-3.45l2.61-11.98s5.89 0 5.89 0zm-.11 4.08c.25-.91-.32-1.64-1.16-1.64h-1.69l-.74 3.28h1.62c.88 0 1.76-.73 1.97-1.64z"/></svg>