<svg viewBox="0 0 54.06 32" xmlns="http://www.w3.org/2000/svg"><path d="m48.37 15.19c.6 0 .9.44.9 1.28 0 1.28-.55 2.21-1.34 2.21-.6 0-.9-.44-.9-1.31 0-1.28.57-2.18 1.34-2.18zm-10.09 3.08c0-.66.49-1.01 1.47-1.01.11 0 .19.03.38.03-.03.98-.54 1.64-1.23 1.64-.38 0-.63-.25-.63-.66zm-12-2.43v.33h-1.91c.16-.76.55-1.17 1.09-1.17s.82.3.82.85zm11.78-15.84c8.84 0 16 7.17 16 16s-7.17 16-16 16c-3.83 0-7.32-1.34-10.08-3.59 2.1-2.03 3.71-4.57 4.57-7.44h-1.33c-.83 2.55-2.3 4.81-4.2 6.63-1.89-1.82-3.34-4.08-4.17-6.62h-1.33c.86 2.86 2.43 5.4 4.52 7.43-2.75 2.22-6.22 3.59-10.04 3.59-8.83 0-16-7.16-16-16s7.16-16 16-16c3.82 0 7.29 1.38 10.04 3.6-2.09 2.02-3.66 4.57-4.52 7.42h1.33c.83-2.54 2.28-4.8 4.17-6.61 1.9 1.81 3.37 4.06 4.2 6.61h1.33c-.86-2.87-2.47-5.41-4.57-7.44 2.76-2.25 6.25-3.59 10.08-3.59zm-30.84 20.21h1.69l1.34-8.04h-2.67l-1.64 4.99-.08-4.99h-2.45l-1.34 8.04h1.58l1.04-6.14.14 6.14h1.17l2.21-6.19-.98 6.19zm7.25-.74.05-.41.38-2.32c.11-.74.14-.98.14-1.31 0-1.25-.79-1.91-2.26-1.91-.63 0-1.2.08-2.05.33l-.25 1.47.16-.03.25-.08c.38-.11.93-.16 1.42-.16.79 0 1.09.16 1.09.6 0 .11 0 .19-.06.41-.27-.03-.52-.05-.71-.05-1.91 0-3 .93-3 2.54 0 1.06.63 1.77 1.55 1.77.79 0 1.36-.25 1.8-.79l-.03.68h1.42l.03-.16.03-.25.03-.33zm3.52-3.16c-.74-.33-.82-.41-.82-.71 0-.35.3-.52.84-.52.33 0 .79.03 1.23.08l.25-1.5c-.44-.08-1.12-.14-1.5-.14-1.91 0-2.59 1.01-2.56 2.21 0 .82.38 1.39 1.28 1.83.71.33.82.44.82.71 0 .41-.3.6-.98.6-.52 0-.98-.08-1.53-.25l-.25 1.5.08.03.3.05c.11.03.25.06.46.06.38.05.71.05.93.05 1.8 0 2.65-.68 2.65-2.18 0-.9-.35-1.42-1.2-1.83zm3.76 2.43c-.41 0-.57-.14-.57-.46 0-.08 0-.16.03-.27l.46-2.73h.87l.22-1.61h-.87l.19-.98h-1.69l-.74 4.47-.08.52-.11.65c-.03.19-.06.41-.06.57 0 .95.49 1.44 1.36 1.44.38 0 .76-.06 1.23-.22l.22-1.44c-.11.05-.27.05-.46.05zm3.98.11c-.98 0-1.5-.38-1.5-1.15 0-.06 0-.11.03-.19h3.38c.16-.68.22-1.15.22-1.64 0-1.45-.9-2.37-2.32-2.37-1.72 0-2.97 1.66-2.97 3.9 0 1.94.98 2.94 2.89 2.94.63 0 1.17-.08 1.77-.27l.27-1.64c-.6.3-1.15.41-1.77.41zm5.43-3.33h.11c.16-.79.38-1.36.66-1.88l-.06-.03h-.16c-.57 0-.9.27-1.42 1.06l.16-1.01h-1.55l-1.06 6.54h1.72c.63-4.01.79-4.69 1.61-4.69zm4.96 4.61.3-1.83c-.54.27-1.04.41-1.44.41-1.01 0-1.61-.74-1.61-1.96 0-1.77.9-3.03 2.18-3.03.49 0 .93.14 1.53.44l.3-1.74c-.16-.05-.22-.08-.44-.16l-.68-.16c-.22-.05-.49-.08-.79-.08-2.26 0-3.84 2.02-3.84 4.88 0 2.16 1.15 3.49 3 3.49.46 0 .87-.08 1.5-.25zm5.4-1.06.35-2.32c.14-.74.14-.98.14-1.31 0-1.25-.76-1.91-2.24-1.91-.63 0-1.2.08-2.04.33l-.25 1.47.16-.03.22-.08c.38-.11.96-.16 1.45-.16.79 0 1.09.16 1.09.6 0 .11-.03.19-.08.41-.25-.03-.49-.05-.68-.05-1.91 0-3 .93-3 2.54 0 1.06.63 1.77 1.56 1.77.79 0 1.36-.25 1.8-.79l-.03.68h1.42v-.16l.03-.25.05-.33zm2.13 1.15c.63-4.01.79-4.69 1.61-4.69h.11c.16-.79.38-1.36.65-1.88l-.06-.03h-.16c-.57 0-.9.27-1.42 1.06l.16-1.01h-1.55l-1.04 6.54h1.69zm5.18 0h1.61l1.31-8.04h-1.69l-.38 2.29c-.46-.6-.96-.9-1.64-.9-1.5 0-2.78 1.85-2.78 4.03 0 1.64.82 2.7 2.07 2.7.63 0 1.12-.22 1.58-.71zm-37.52-1.94c0-.66.49-1.01 1.45-1.01.14 0 .22.03.38.03-.03.98-.52 1.64-1.23 1.64-.38 0-.6-.25-.6-.66z"/></svg>