<svg viewBox="0 0 49.87 13.34" xmlns="http://www.w3.org/2000/svg"><path d="m13.2 0h-1.66c-.41 0-.45.04-.45.46v12.29c0 .34.06.4.4.4h1.63c.51 0 .56-.05.56-.55v-12.14c0-.39-.07-.46-.47-.46zm-10.86 0c-.51 0-1.01 0-1.52 0-.53.01-.82.31-.82.85v11.87c0 .35.05.4.4.4h1.54c.54 0 .81-.27.81-.81v-11.88c0-.35-.07-.43-.41-.43zm7.38 12.81c-.15-1.46-.68-2.76-1.7-3.84-1.1-1.15-2.46-1.79-3.94-1.94-.48 0-.48 0-.47.35 0 .13.03.26.05.4.26 1.75 1.12 3.15 2.55 4.2.94.69 2 1.05 3.15 1.15.34.03.4 0 .37-.33zm-.36-12.78c-.13.02-.27.01-.4.03-1.5.24-2.78.9-3.79 2.04-.93 1.04-1.45 2.27-1.57 3.66-.03.36-.01.36.37.41.52-.13 1.07-.21 1.57-.4 2.5-.95 3.86-2.79 4.18-5.43.04-.33-.02-.37-.36-.32zm13.4 6.2c-.04-1.46-.87-2.43-2.27-2.78-1.56-.39-3.1-.16-4.63.17-.18.04-.26.17-.25.36v1.03c0 .49.06.51.55.48.99-.06 1.98-.09 2.96-.1.59 0 .95.33 1.05.87.03.17.02.34.02.51 0 .66 0 .67-.65.66-.91 0-1.83.02-2.71.29-.91.27-1.57.82-1.77 1.79-.13.63-.11 1.27.04 1.9.21.88.74 1.47 1.61 1.73.96.28 1.91.24 2.83-.2.26-.13.51-.28.8-.45.01.09.02.14.02.18.02.43.08.48.51.48h1.54c.3 0 .41-.1.4-.39-.01-2.18 0-4.36-.06-6.54zm-2.83 4.91c-.56.22-1.13.33-1.73.23-.37-.06-.65-.29-.68-.67-.03-.35 0-.7.06-1.04.07-.36.34-.63.7-.67.59-.07 1.19-.09 1.79-.11.05 0 .15.13.16.2.02.29 0 .59 0 .89 0 .23-.02.46 0 .69.03.26-.07.4-.31.49zm28.66-8.44v.08h.21v.61h.09v-.61h.21v-.08zm1.23 0h-.12l-.12.33c-.03.09-.06.16-.07.23-.02-.07-.04-.15-.07-.23l-.12-.33h-.11l-.05.69h.08l.02-.3c0-.1.01-.2.01-.3.02.08.05.17.08.27l.11.33h.07l.12-.33c.03-.09.06-.18.09-.26 0 .08 0 .2.01.3l.02.3h.09s-.04-.69-.04-.69zm-10.71 4.18c0-.52-.07-1.05-.18-1.56-.22-1.06-.83-1.8-1.94-1.99-1.21-.22-2.37-.04-3.41.66-.1.07-.2.13-.38.24 0-.2-.02-.33-.02-.46 0-.34-.07-.4-.4-.4-.54 0-1.07 0-1.6 0-.31 0-.41.1-.41.41v8.92c0 .35.09.44.44.45h1.77c.26 0 .38-.1.38-.37 0-.59 0-1.18 0-1.77 0-1.57 0-3.14 0-4.72 0-.13.03-.33.12-.38.66-.4 1.36-.65 2.14-.52.43.07.73.32.81.77.06.31.1.62.1.93.01 1.87 0 3.74 0 5.6 0 .41.05.45.46.45h1.6c.46 0 .51-.05.51-.5 0-1.92.01-3.85 0-5.77zm9.1-.11c0-.3-.02-.59-.06-.88-.18-1.14-.79-1.95-1.9-2.32-.47-.16-.95-.26-1.45-.29-1.16-.07-2.31.07-3.45.32-.25.06-.35.19-.35.44v.94c0 .51.07.55.56.52.98-.06 1.96-.1 2.94-.1.63 0 .99.32 1.09.95.05.28.02.57.04.85 0 .19-.08.25-.26.24-.41 0-.83-.04-1.23 0-.69.08-1.4.16-2.07.35-.89.25-1.47.87-1.62 1.81-.06.39-.05.79-.03 1.19.08 1.61 1.3 2.66 2.91 2.53.81-.06 1.58-.26 2.24-.75.04-.03.1-.05.16-.08.03.04.05.06.05.07 0 .05.02.1.02.14.02.42.05.44.47.44h1.49c.4 0 .45-.05.45-.44 0-1.98 0-3.97 0-5.95zm-2.52 3.97c0 .18-.07.28-.23.35-.58.26-1.19.39-1.83.29-.46-.08-.73-.39-.73-.98.01-.99.23-1.44 1.44-1.53.36-.03.72 0 1.08 0 .2 0 .27.09.26.27v.83.77zm-16-7.13c0-.25-.11-.36-.37-.35-.73.03-1.43.27-2.02.7-.08.06-.16.11-.29.2-.01-.14-.02-.22-.02-.3 0-.41-.08-.49-.48-.49-.52 0-1.03 0-1.54 0-.47 0-.55.08-.55.55v8.72c0 .42.09.52.49.52h1.63c.44 0 .51-.07.51-.52 0-2.11 0-4.23 0-6.35 0-.21.06-.33.25-.42.64-.3 1.29-.52 2-.49.26.01.39-.09.38-.36 0-.47-.01-.93 0-1.4z"/></svg>