<svg viewBox="0 0 30.71 30.48" xmlns="http://www.w3.org/2000/svg"><path d="m0 15.24c0 6.24 3.78 11.6 9.19 13.96-.04-1.06 0-2.34.27-3.5.3-1.24 1.98-8.3 1.98-8.3s-.49-.97-.49-2.41c0-2.26 1.32-3.94 2.96-3.94 1.4 0 2.07 1.04 2.07 2.29 0 1.39-.9 3.48-1.36 5.41-.39 1.62.82 2.93 2.42 2.93 2.91 0 4.87-3.71 4.87-8.1 0-3.34-2.27-5.84-6.39-5.84-4.66 0-7.56 3.45-7.56 7.3 0 1.33.39 2.26 1.01 2.99.28.33.32.47.22.85-.07.28-.24.95-.31 1.22-.1.39-.42.52-.77.38-2.14-.87-3.14-3.2-3.14-5.82 0-4.33 3.68-9.52 10.98-9.52 5.86 0 9.72 4.21 9.72 8.73 0 5.98-3.35 10.44-8.28 10.44-1.66 0-3.22-.89-3.75-1.9 0 0-.89 3.51-1.08 4.19-.32 1.17-.96 2.35-1.55 3.26 1.38.41 2.84.62 4.35.62 8.48 0 15.35-6.82 15.35-15.24s-6.87-15.24-15.35-15.24-15.36 6.82-15.36 15.24z"/></svg>