<svg viewBox="0 0 20 20" xmlns="http://www.w3.org/2000/svg"><g fill="#1c274c"><path d="m14 4h-8c-2.83 0-4.24 0-5.12.88-.88.88-.88 2.29-.88 5.12s0 4.24.88 5.12c.49.49 1.16.71 2.15.81-.03-.72-.03-1.57-.03-2.43-.28 0-.5-.22-.5-.5s.22-.5.5-.5h14c.28 0 .5.22.5.5s-.22.5-.5.5c0 .85 0 1.7-.03 2.43.99-.09 1.65-.31 2.15-.81.88-.88.88-2.29.88-5.12s0-4.24-.88-5.12-2.29-.88-5.12-.88zm-7 4.75c.41 0 .75-.34.75-.75s-.34-.75-.75-.75h-3c-.41 0-.75.34-.75.75s.34.75.75.75zm8 .25c.55 0 1-.45 1-1s-.45-1-1-1-1 .45-1 1 .45 1 1 1z" fill-rule="evenodd"/><path d="m15.12.88c-.88-.88-2.29-.88-5.12-.88s-4.24 0-5.12.88c-.49.49-.71 1.15-.8 2.14.56-.01 1.18-.01 1.85-.01h8.14c.68 0 1.3 0 1.85.01-.1-.98-.31-1.64-.8-2.14z"/><path d="m16 13.5c0 2.83 0 4.74-.88 5.62s-2.29.88-5.12.88-4.24 0-5.12-.88-.88-2.79-.88-5.62z"/></g></svg>