<svg viewBox="0 0 19.2 19.2" xmlns="http://www.w3.org/2000/svg"><path d="m9.6 0c-5.3 0-9.6 4.3-9.6 9.6s4.3 9.6 9.6 9.6 9.6-4.3 9.6-9.6-4.3-9.6-9.6-9.6zm0 7.39c-.29 0-.53.24-.53.53v3.17c-.04 1.25-1.08 2.23-2.33 2.19-1.2-.04-2.16-1-2.19-2.19v-1.33h1.73v1.33c0 .29.24.53.53.53s.53-.24.53-.53v-3.17c.03-1.25 1.06-2.24 2.31-2.21 1.21.03 2.19 1 2.21 2.21v.6l-1.04.33-.69-.33v-.6c0-.29-.24-.53-.53-.53zm5.05 3.7c-.03 1.25-1.06 2.24-2.31 2.21-1.21-.03-2.19-1-2.21-2.21v-1.35l.69.33 1.04-.33v1.35c0 .29.24.53.53.53s.53-.24.53-.53v-1.33h1.73z"/></svg>