<svg viewBox="0 0 41.46 30.48" xmlns="http://www.w3.org/2000/svg"><path d="m36.58 4.82c1.76-.95 3.1-2.46 3.74-4.26-1.64.88-3.46 1.52-5.4 1.87-1.55-1.5-3.76-2.43-6.21-2.43-4.7 0-8.51 3.44-8.51 7.69 0 .6.08 1.19.22 1.75-7.07-.32-13.34-3.38-17.53-8.04-.73 1.14-1.15 2.46-1.15 3.87 0 2.67 1.5 5.02 3.78 6.4-1.39-.04-2.71-.39-3.85-.96v.1c0 3.73 2.93 6.84 6.82 7.54-.71.18-1.47.27-2.24.27-.55 0-1.08-.05-1.6-.14 1.08 3.06 4.22 5.28 7.95 5.34-2.91 2.06-6.58 3.29-10.56 3.29-.69 0-1.36-.04-2.03-.11 3.76 2.18 8.23 3.46 13.04 3.46 15.65 0 24.2-11.72 24.2-21.89 0-.33 0-.66-.03-.99 1.66-1.09 3.1-2.44 4.24-3.98-1.53.61-3.17 1.03-4.88 1.21z"/></svg>