<svg viewBox="0 0 31.98 22.49" xmlns="http://www.w3.org/2000/svg"><path d="m31.66 4.85s-.31-2.2-1.27-3.17c-1.22-1.27-2.58-1.28-3.2-1.35-4.48-.32-11.19-.32-11.19-.32h-.01s-6.71 0-11.19.32c-.63.07-1.99.08-3.2 1.35-.96.97-1.27 3.17-1.27 3.17s-.32 2.59-.32 5.18v2.43c0 2.59.32 5.18.32 5.18s.31 2.2 1.27 3.17c1.22 1.27 2.81 1.23 3.53 1.37 2.56.25 10.87.32 10.87.32s6.72-.01 11.2-.33c.63-.07 1.99-.08 3.2-1.35.96-.97 1.27-3.17 1.27-3.17s.32-2.59.32-5.18v-2.43c0-2.59-.32-5.18-.32-5.18zm-18.97 10.55v-8.99s8.64 4.51 8.64 4.51z"/></svg>